<svg xmlns="http://www.w3.org/2000/svg" xmlns:xlink="http://www.w3.org/1999/xlink" id="Layer_1" x="0" y="0" baseProfile="tiny" version="1.2" viewBox="0 0 1527.6 213.9" xml:space="preserve"><g><path fill="#4A4A49" d="M131.2,0c1.6,1.8,3.1,3.5,4.9,5.5c-1,1.1-1.9,2.3-2.9,3.4c-5.5,6.5-5.9,12.9-0.8,19.7 c2.9,3.8,6.7,6.8,9.6,10.5c3.2,4.2,6.7,8.5,8.5,13.3c3.3,8.6,0.7,16.6-5.8,22.7c-4.6,4.3-10.3,7.5-15.5,11.2 c-0.9,0.6-1.9,1-3.7,1.9c2.2,0.7,3.6,1.1,5.1,1.6c14.8,4.6,25.7,13.4,29.6,28.9c5.5,21.4-5.3,41-26.7,48.6 c-18.3,6.4-34.9,3.5-48.8-10.7c-2.2-2.3-4.3-4.7-6.6-7.2c-6.9,7.1-13.3,13.5-20.5,20.9c-2-2.4-3.4-4.4-5.1-6.1 c-7.6-7.8-15.4-15.5-23-23.3c-10.4-10.6-10.7-22.5-0.9-33.6c3-3.3,6.4-6.3,9.6-9.6c1.5,1.4,2.9,2.6,4.3,3.9 c-0.8,1.2-1.3,1.9-1.8,2.7c-3.6,5.3-3.3,9,1.2,13.6c8.8,8.8,17.6,17.7,26.5,26.5c0.7,0.7,1.4,1.2,2.6,2.4c3.9-4.1,7.7-8.1,11.6-12 c5.6-5.4,10.5-11.7,17.9-15.1c0.8-0.4,1.2-2.4,1.2-3.7c0.1-16.9,0.1-33.7,0.1-50.6c0-1.4,0-2.8,0-4.4c2.6,0,4.8,0,7.6,0 c0,7.7,0,15.3,0,22.8c12.8,1.9,19.3-3.8,19.2-16c-0.1-8.1-3-15-7.8-21.3c-3.5-4.6-7.2-9.2-7.6-15.8c-0.8,0.5-1.3,0.7-1.7,1 c-6.5,6.4-13,12.9-19.4,19.5c-1,1-1.4,3-1.4,4.5c0.8,24.9-7.9,46.2-24.3,64.7c-0.7,0.8-1.5,1.6-2.2,2.3c-0.2,0.2-0.6,0.4-0.9,0.5 c-4.5-3.6-4.4-3.5-1.7-8.4c9.8-17.8,13-36.7,7.6-56.4C65.3,44.5,57.4,34.1,42.5,31c-7.2-1.5-14.4-1-21.4,1.5 c-6.3,2.2-11,6.4-13.3,12.5c-1.3,3.3-2.9,4.2-6,2.9c-0.5-0.2-1.2-0.1-1.8-0.2c0-1.2,0-2.4,0-3.6c0.3-1,0.6-2,0.9-3 C4.1,26.2,12,14.8,26.3,8.7c24-10.2,51.5,2.9,60.6,28.5c0.5,1.5,1.1,3,1.7,4.8c0.8-0.7,1.4-1.1,1.9-1.6 C103.4,27.6,116.2,14.8,129,2c0.6-0.6,1-1.3,1.4-2C130.7,0,130.9,0,131.2,0z M84.1,144.1c5.1,4.4,10.2,9.3,15.7,13.4 c5.2,3.9,11.4,5,17.9,4.4c10.1-0.9,17.4-7.1,17.9-17c0.6-12.3,0.4-24.7-0.4-37c-0.5-8.1-5.3-12.6-12.7-13.6 c-4.2-0.5-8.5-0.1-13.2-0.1c0,7,0.1,14,0,21c0,2.6,0.5,4.2,3,5.6c4.5,2.4,6.4,7.9,5.1,13c-1.2,4.5-5,7.7-9.8,8 c-5,0.3-9.2-2.5-11.1-7.7c-0.2-0.6-0.4-1.2-0.6-1.7C92,136.2,88.4,139.8,84.1,144.1z"/><path fill="#4A4A49" d="M345.7,213.9c-2.7-0.7-5.5-1.3-8.2-2.2c-9.7-3.4-16.9-9.2-18.6-20c-1.3-8.5,3.3-15.9,11.1-17.8 c4.7-1.1,8.8-0.1,11.8,3.7c2.8,3.6,3.2,7.7,0.9,11.7c-2.4,4.3-6.2,6-11.1,5.2c-0.4-0.1-0.9,0-1.6,0c1.3,4.1,4.4,6.3,7.9,7.7 c7.1,2.9,14.5,3.4,22,1.2c10.6-3.2,16.5-12.1,14.5-23c-1.1-5.9-3.4-11.6-5.6-17.2c-2.1-5.4-4.6-10.6-7.1-16.3 c-0.7,0.5-1.8,1.2-2.8,1.9c-6.6,5-13.4,9.9-19.7,15.2c-2.8,2.4-5.2,2.2-8,0.5c-10.5-6.2-16.5-15.5-16.9-27.6 c-0.5-13.6-0.3-27.3,0-41c0.2-9.8,4.3-18,11.7-24.3c4.3-3.7,9.1-6.9,14-9.7c7-4,14.4-7.4,21.5-11.1c1.9-1,3.3-1.1,5,0.6 c5,4.9,10.3,9.5,15.3,14.4c1.2,1.2,2,3.2,2.1,4.8c0.1,21.3,0.2,42.5,0,63.8c-0.1,8.7,1.9,16.7,5.8,24.3c1.6,3.1,3.1,6.2,4.5,9.3 c3.5,7.9,2.9,15.5-1.8,22.7c-7.8,12-18.8,19.2-32.7,22.1c-0.9,0.2-1.8,0.5-2.6,0.8C353.3,213.9,349.5,213.9,345.7,213.9z M361.9,106.3c0-9.1-0.2-18.3,0.1-27.4c0.2-6.3-4-9.7-8.4-12.2c-1.7-1-5.4,1.5-8.1,2.6c-1.3,0.5-2.4,1.5-3.6,2.3 c-3.8,2.8-5.6,6.4-5.6,11.3c0.1,17.7,0,35.4,0.1,53.1c0,8,5.2,11.8,12.8,8.9c3.6-1.4,6.8-3.8,10.1-5.8c2.1-1.2,2.7-2.9,2.7-5.3 C361.9,124.5,361.9,115.4,361.9,106.3z"/><path fill="#4A4A49" d="M1527.6,89.8c-3.3,9.1-10.4,13.9-18.8,17.7c-7.5,3.4-14.7,7.3-22,10.8c-1.9,0.9-2.7,2-2.5,4.1 c0.2,1.8,0,3.6,0.1,5.3c0.2,8,3.9,14.2,11.3,17c6.2,2.4,13,3.4,19.5,5c1.6,0.4,3.3,0.4,5.7,0.6c-5.6,6-10.6,11.6-15.8,17.1 c-0.5,0.5-1.6,0.8-2.2,0.6c-7.2-2-14.6-3.3-21.4-6.3c-11.6-5.1-17.5-15.3-18.3-27.4c-1-16-0.7-32-0.4-48 c0.1-7.7,4.4-13.6,11.1-17.1c12.4-6.7,25-13,37.9-19.6c6.5,9.9,12.2,19.9,15.9,31C1527.6,83.6,1527.6,86.7,1527.6,89.8z M1497,66.3 c-2.1,1-3.9,1.9-5.7,2.6c-5,2-7.3,5.5-7.1,11c0.3,8.7,0.1,17.3,0.1,26c0,1.2,0.1,2.5,0.2,4.2c5.6-2.9,10.7-5.3,15.7-8.1 c3.5-1.9,4.9-5.4,5.3-9.2C1506.7,82.8,1502.5,74.5,1497,66.3z"/><path fill="#4A4A49" d="M759,36.9c1.9,2.2,3.8,4.5,5.2,6.2c6.9-2.5,13.3-4.9,19.7-7.3c0.7-0.3,1.4-0.9,1.9-1.5 c2.2-2.7,4.3-5.4,6.4-8.1c1.3-1.6,1.4-3-0.2-4.7c-2.6-2.8-2.5-5.6-0.2-7.8c2.1-2,5.3-2,7.4,0c2.3,2.2,2.1,4.8,0,7.9 c-0.7,1.1-0.9,3.4-0.2,4.6c1.8,2.9,4.1,5.5,6.3,8.2c0.6,0.8,1.6,1.3,2.6,1.7c6.1,2.3,12.1,4.5,19,7.1c1.3-1.6,3.3-3.9,5.3-6.2 c-0.3-0.1-0.5-0.1-0.8-0.2c0.1-1.5-0.3-3.5,0.5-4.4c0.9-1,2.9-1,4.5-1.5c0.1,0.3,0.3,0.6,0.4,0.9c3.2-3.7,6.4-7.3,9.6-11 c-0.3-0.1-0.6-0.2-0.9-0.3c0.2-1.5,0-3.4,0.9-4.5c0.7-0.9,2.6-0.8,4-1.1c0.1,0.3,0.3,0.7,0.4,1c1.2-1.4,2.4-2.7,3.8-4.3 c-1.4-0.7-2.4-1.3-4.4-2.4c6.6-3.2,12.4-6,18.2-8.8c0.3,0.3,0.7,0.5,1,0.8c-2,6.2-4.1,12.4-6.3,19.2c-1.2-1.5-1.9-2.4-2.9-3.7 c-1.2,1.4-2.4,2.8-3.7,4.2c26.8,23.9,36.4,53.3,29.8,88.2c0.7,0.2,1.2,0.5,1.8,0.6c4.1,1,5,2.3,3.7,6.4c-1.2,3.7-2.9,7.3-4.3,10.9 c-0.3,0.7-0.5,1.5-0.8,2.3c3.3,0.9,6.6,1.5,9.7,2.6c2.4,0.9,4.7,2.3,6.8,3.8c4.7,3.5,4.9,5,2.2,10c4.2,2.6,8.7,2.9,13.3,1.4 c3.4-1.1,6.5-2.9,9.8-4.2c1-0.4,2.6-0.6,3.2,0c0.7,0.6,1,2.4,0.6,3.1c-2.2,3.5-4.4,6.9-7.1,10c-1.5,1.7-3.7,2.8-6.3,4.7 c3,0.5,5.3,0.7,7.5,1.3c1.4,0.4,2.7,1.4,4,2.2c-0.9,1.3-1.4,3-2.6,3.9c-6.5,4.9-14.1,6-22,5.5c-7.6-0.4-14.8-2.3-21-7 c-5-3.8-8.8-8.4-7.8-15.2c-4.2-1.9-9.8-0.3-13.5,3.8c4.8,5.5,9.7,11,14.5,16.5c0.7,0.8,1.4,1.6,2.1,2.4c1.5,1.8,1.9,3.7,0.1,5.4 c-1.9,1.7-4,1.4-5.6-0.5c-4.7-5.3-9.4-10.7-14.1-16.1c-1.4-1.6-2.8-3.2-4.4-4.9c-3.2,2.1-6.3,4.3-9.5,6.2c-3.9,2.3-4.9,2-7.1-1.8 c-3-5.3-5.9-10.6-9-15.8c-1.4-2.4-1.1-3.9,1.4-5.2c2-1.1,3.9-2.6,6.2-4.1c-2.1-2.5-3.9-4.6-5.9-6.9c-10.6,8.7-22.4,13.5-36.1,13.5 c-13.7,0-25.5-4.6-36.4-13.6c-1.9,2.2-3.8,4.4-6,6.9c2.5,1.6,4.6,3.1,6.8,4.5c1.8,1.1,2.1,2.4,1.1,4.2c-3.4,5.9-6.7,11.7-10.1,17.6 c-1.4,2.5-3.3,2.4-5.4,1.1c-3.4-2.1-6.8-4.3-10.5-6.7c-4.3,4.9-8.7,9.9-13.1,14.8c-1.7,2-3.4,3.9-5.2,5.9c-1.7,2-3.9,2.6-5.9,0.7 c-2-1.8-1.3-3.8,0.3-5.6c5.1-5.8,10.2-11.6,15.3-17.4c0.4-0.4,0.7-1,1.1-1.6c-3.9-3.6-8.2-5.1-13.4-4c0.6,10-5.5,15.1-13.2,18.8 c-9.2,4.4-18.9,5.2-28.8,2.6c-2.3-0.6-4.7-1.4-6.5-2.7c-1.9-1.4-3.3-3.6-5-5.4c2.1-0.8,4.1-1.7,6.2-2.4c1.4-0.5,3-0.7,5.3-1.2 c-1.5-1.1-2.5-1.8-3.5-2.5c-4.1-2.7-7.7-6-9.4-10.8c-0.5-1.4,0-3.1,0-4.6c1.4,0.2,3,0.1,4.2,0.7c5.4,2.8,10.9,5.5,17.3,4.2 c1.7-0.3,3.3-1.1,5-1.6c-2.9-5.3-2.9-7.1,2.1-10.2c4.9-3,10.6-4.9,16.2-7.4c-1.1-2.5-2.5-5.8-3.9-9.2c-2.7-6.6-2.2-7.8,4.4-10.2 c-6.5-34.7,3-64.2,29.8-88.1c-1.2-1.4-2.3-2.8-3.5-4.3c-0.9,1.1-1.6,2.1-2.9,3.9c-2.3-6.9-4.3-13-6.3-19.2c0.3-0.3,0.6-0.6,0.9-0.9 c5.8,2.8,11.6,5.6,18.1,8.7c-1.8,1.1-2.8,1.7-4.1,2.5c1.2,1.4,2.3,2.7,3.4,4c0.1-0.3,0.3-0.6,0.4-0.8c1.6,0.5,3.5,0.7,4.8,1.7 c0.6,0.5,0.1,2.5-0.7,4c3.2,3.7,6.5,7.5,9.7,11.2c0.1-0.3,0.3-0.6,0.4-0.9c1.6,0.4,3.4,0.5,4.5,1.5c0.8,0.7,0.5,2.6,0.7,4 C759.6,36.5,759.3,36.7,759,36.9z M795.6,29.4c-1.2,1.4-2,2.4-2.8,3.4c-12,14.7-24,29.5-36,44.2c-1.1,1.4-2.5,3.2-4.3,1.6 c-0.6-0.5,0-3.2,0.8-4.2c3.8-5,7.9-9.8,11.9-14.7c4.9-5.9,9.7-11.9,14.8-18.1c-14,2.4-29.4,19.3-33.5,36.2 c-3.9,16.1,1.5,36.5,12.1,44.6c0-1.6,0-2.8,0-4.1c0-11.2-0.1-22.3,0.1-33.5c0-2.1,0.8-4.5,2.1-6.1c10.5-13.1,21.1-26,31.7-39 c2.8-3.4,3.3-3.4,6.1,0.1c10.5,12.8,21,25.5,31.3,38.4c1.5,1.9,2.4,4.7,2.5,7.1c0.3,11.2,0.1,22.3,0.1,33.5c0,1.2,0.1,2.4,0.2,4.2 c12.9-15.1,16.4-31.5,10.6-49.5c-5.1-15.7-16.1-26-31.5-31.8c0.4,1.2,1.1,2.1,1.8,3c6.1,7.5,12.2,14.9,18.3,22.3 c2.3,2.8,4.6,5.4,6.7,8.4c0.6,0.8,0.2,2.3,0.3,3.5c-1.2-0.3-2.5-0.5-3.7-0.9c-0.4-0.1-0.6-0.7-0.9-1.1c-5-6.2-10-12.3-15.1-18.5 C811.3,48.7,803.6,39.3,795.6,29.4z M827.7,85.6c-21.5,0-42.8,0-64.2,0c-0.1,0.7-0.3,1.1-0.3,1.6c0,12.9,0,25.9,0,38.8 c0,0.8,0.1,1.9,0.6,2.3c3.9,3.5,8.3,6.1,13.8,8c0-7.3-0.1-13.9,0-20.5c0.1-10.4,7.9-18.2,17.9-18.2c10.1,0,17.7,7.7,17.9,18.2 c0.1,5.6,0,11.2,0,16.7c0,1.1,0.2,2.2,0.3,4.3c4.3-2.6,8-4.7,11.6-6.9c2-1.1,2.5-2.8,2.5-5.1c-0.1-12,0-24-0.1-36 C827.9,87.8,827.8,86.8,827.7,85.6z M870.6,106.7c0.4-0.1,0.8-0.2,1.2-0.3c0.7-3.9,1.4-7.9,2.2-11.8c0.5,0.1,1.1,0.2,1.6,0.3 c-0.5,3.5-1.1,7-1.4,10.6c-0.1,1,0.6,2.1,0.9,3.2c0.4-0.1,0.9-0.2,1.3-0.3c0.8-4.1,1.6-8.2,2.5-12.3c0.6,0.1,1.1,0.2,1.7,0.4 c-0.6,3.8-1.3,7.6-1.7,11.4c-0.1,1,0.7,2.2,1,3.2c10-22.7-1.6-68.4-19.1-79c-1.6,6.7-5.9,10.7-12.4,12.5c0.2,0.6,0.3,0.8,0.4,1 c13.6,16.2,18.9,34.7,15.6,55.7c-0.4,2.4,0.7,2.8,2.8,2.9c0.3-2.1,0.5-4.2,1-6.1c0.5-1.8-0.9-4.2,2.4-6c-0.4,4.3-0.9,7.9-1.1,11.5 C869.5,104.7,870.3,105.7,870.6,106.7z M730.3,31.9c-18.4,13.6-29.4,57.4-19.9,79.2c4.1-1.7,1.1-4.5,1.1-6.7c0-2.6-0.5-5.3-0.7-7.9 c0.5-0.1,1-0.2,1.5-0.2c0.8,4.2,1.6,8.4,2.4,12.6c0.5,0,1,0,1.5-0.1c2.5-4.4-2.2-9.5,1.1-14.1c0.7,3.9,1.3,7.9,2.1,12.4 c3.8-1.9,1.8-4.7,1.7-6.8c0-2.4-0.3-4.9-0.4-7.3c0.5-0.1,1-0.1,1.5-0.2c0.6,3.9,1.1,7.8,1.7,11.6c2.9-0.1,3.1-1.5,2.7-3.6 c-3.1-20.3,2-38.3,15-54.2c0.4-0.5,0.8-1.1,1.3-1.9C736.1,42.9,731.9,38.9,730.3,31.9z M753.8,125.5c-19.1-27.2-17.3-52.8,4.9-77.3 c-2-2.1-4-4.3-6-6.5c-1.1,0.9-1.9,1.4-2.5,2c-16,15.3-22.5,33.9-19.4,55.8c0.9,6.3,1,6.3-4.4,9.3c-0.2,0.1-0.3,0.4-0.8,1.2 c2.7,5.4,5.7,11.2,8.7,17.1c3.8-3.5,5.4-3.5,8.7,0c1.6,1.7,3.1,3.4,4.9,5.3C750.1,129.7,752,127.5,753.8,125.5z M865.8,109.5 c-1.1-0.7-1.5-1-1.9-1.2c-6-2.7-4.8-2.3-3.8-7.7c2.6-15,0.2-29.1-7.4-42.2c-3.7-6.4-8.3-12-14.4-16.8c-2.2,2.4-4.1,4.5-5.9,6.5 c0.3,0.6,0.3,0.9,0.5,1.1c0.6,0.6,1.2,1.2,1.7,1.8c10.3,10.9,15.8,23.8,15.7,38.9c-0.1,12.3-4.1,23.3-11.5,33 c-1.3,1.8-1.6,2.9,0.1,4.5c1.6,1.4,2.9,3.1,4.5,4.9c1.6-1.7,2.9-3.2,4.2-4.7c3.5-3.9,5-4.1,9.4-0.8 C860,121,862.8,115.4,865.8,109.5z M869.2,146.4c7.9-8.7,13.1-17.9,17-28.2c-5.6-2.4-11-4.7-15.9-6.8c-4.5,7.8-8.7,15.1-12.7,21.9 C861.3,137.4,865,141.7,869.2,146.4z M705.4,117.9c1.9,8.4,11,23.6,16.4,27.7c4.1-3.9,8.3-7.9,12.1-11.6 c-4.5-7.7-8.7-15.1-13.1-22.7C715.9,113.4,710.8,115.7,705.4,117.9z M667.5,165.6c10.4,6.6,34.8,4,40.2-7.2 c-6.6,3.9-8.5,3.5-13.4-2.6c-1-1.3-2.2-2.5-3.1-3.9c-1.4-2.1-2.7-2.7-5.2-1.5c-4.4,2.1-9.2,2-13.9,0.7c-2.3-0.6-4.5-1.6-7.1-2.5 c2.8,4.2,3.5,4.7,11.8,9.2c1,0.5,2.4,1.7,2.3,2.3c-0.3,1.1-1.3,2.3-2.4,2.7C673.8,163.9,670.8,164.6,667.5,165.6z M926.4,148.4 c-11.5,4.4-11.5,4.4-22.9,1.4c-0.8-0.2-2.2,0.5-2.8,1.2c-2,2.2-3.7,4.6-5.6,6.9c-2.6,3.1-5.2,3.7-8.8,2c-0.9-0.4-1.7-0.9-3.1-1.6 c7.4,10.7,29.8,14.4,40.4,7.1c-2.8-0.8-5.6-1.3-8.3-2.4c-1.3-0.5-2.2-1.9-3.3-2.8c1-0.9,1.8-2.2,3-2.7 C919.3,155.6,923.2,153.2,926.4,148.4z M746.8,161.3c0.6-0.3,1.1-0.6,1.7-0.9c-0.4-1-0.4-2.3-1.1-2.8c-2.6-2.2-5.5-4.1-8.2-6.2 c-0.6-0.5-0.7-1.5-1.1-2.3c3.8,1.8,6.9,4.1,9.9,6.3c1.8,1.3,2.9,1.1,3.2-1.2c-3.6-2.7-7-5.3-10.5-7.8c0.3-0.5,0.6-0.9,0.9-1.4 c4,1.6,6.8,5.4,11.9,7.5c-0.5-1.8-0.4-3.1-1.1-3.6c-2-1.7-4.3-3-6.3-4.6c-0.7-0.5-1-1.6-1.4-2.4c0.9,0.2,1.9,0.2,2.6,0.6 c2.6,1.6,5,3.5,7.5,5.2c0.4-0.2,0.7-0.4,1.1-0.5c-0.2-1-0.1-2.3-0.7-2.8c-4.6-3.7-9.3-7.3-14.2-11.1c-3.9,4.2-7.8,8.4-12.2,13.2 C735.1,151.5,740.9,156.4,746.8,161.3z M862.3,146.2c-4.5-4.8-8.4-9-12.2-13.2c-5,3.9-9.7,7.4-14.3,11.2c-0.6,0.5-0.4,1.9-0.5,2.8 c0.4,0.1,0.7,0.3,1.1,0.4c2.7-1.9,5.3-3.9,8.1-5.7c0.5-0.3,1.4,0,2.1,0c-0.2,0.6-0.3,1.4-0.7,1.7c-2.2,1.7-4.7,3.3-6.9,5.1 c-0.6,0.5-0.7,1.6-1.1,2.5c0.9,0,2,0.4,2.6-0.1c2.4-1.5,4.6-3.4,6.9-5c0.7-0.5,1.6-0.6,2.5-0.8c0.2,0.4,0.4,0.8,0.5,1.2 c-3.5,2.7-7.1,5.3-10.6,8c0.1,0.4,0.1,0.8,0.2,1.2c1.1-0.1,2.5,0.2,3.3-0.3c3.1-2,6.1-4.4,9.1-6.6c0.3,0.2,0.6,0.4,0.8,0.5 c-0.4,0.8-0.6,1.8-1.2,2.3c-2.6,2.1-5.3,4-8,5.9c-1.7,1.1-2.1,2.2,0.4,3.9C850.1,156.4,856.1,151.4,862.3,146.2z M826.3,81.7 c0.2-0.3,0.4-0.6,0.6-0.8c-1.4-1.2-2.9-3.6-4.3-3.5c-7.9,0.2-15.8-1.6-23.6,1.2c-2.2,0.8-4.9,0.3-7.3,0c-3-0.3-6-1.2-9-1.4 c-3.9-0.2-7.8,0.2-11.7-0.1c-3.6-0.3-5.4,1.4-6.8,4.7C785.2,81.7,805.8,81.7,826.3,81.7z M800.6,126.9c0-3.2,0-6.4,0-9.6 c-0.1-3.6-1.9-5.7-4.8-5.8c-3.1-0.1-5.1,2.2-5.2,5.9c-0.1,5.2,0,10.4,0,15.7c0,7.4,0.2,7.5,7.6,6.8c1.8-0.2,2.5-0.7,2.5-2.6 C800.5,133.8,800.5,130.3,800.6,126.9z M696.2,151.5c1.6,0.7,2.5,1.4,3,1.2c5.3-2.4,10.5-5,15.7-7.5c-2.3-3.2-4.8-6.8-7.3-10.3 c-0.4-0.6-1.2-1.2-1.9-1.4c-3.9-1-14.1,2.9-16.4,6.3c-0.3,0.5-0.2,1.2-0.3,1.9c0.6,0,1.3,0.1,1.8-0.2c2.1-1.2,4-2.6,6.1-3.6 c0.6-0.3,1.6,0.2,3.2,0.4c-3.1,1.9-5.2,3-7.2,4.5c-0.6,0.4-0.7,1.6-1,2.5c0.8-0.1,1.7-0.1,2.4-0.4c1.8-0.9,3.4-2.1,5.2-3 c0.7-0.3,1.6-0.1,3.2-0.1c-7.9,6.4-7.9,6.4-7.2,7.7c2.3-1.4,4.7-2.8,7.1-4c0.5-0.3,1.4,0.1,2.1,0.2c-0.4,0.6-0.6,1.4-1.2,1.8 C701.4,148.6,699.2,149.8,696.2,151.5z M876.2,145.2c5.1,2.4,10.1,4.8,15.1,7.1c0.7,0.3,1.7-0.1,2.5-0.1c0-0.4,0.1-0.8,0.1-1.2 c-2.6-1.6-5.2-3.1-7.9-4.8c0.3-0.5,0.7-1.2,0.8-1.2c3,1.3,6,2.7,10.1,4.6c-1.2-4.8-6-4.7-8.4-8.3c1.6,0.2,2.5,0.1,3.1,0.4 c1.8,0.9,3.4,2.1,5.2,3c0.7,0.4,1.6,0.3,2.4,0.5c-0.3-0.9-0.3-2.1-0.9-2.5c-2-1.5-4.3-2.7-6.4-4.1c0.1-0.3,0.1-0.6,0.2-0.9 c0.8,0,1.7-0.3,2.3,0c1.7,0.8,3.3,1.9,4.9,2.8c0.9,0.5,2,0.7,2.9,1c-0.5-1-0.8-2.4-1.6-3c-3.9-3.3-8.6-5-13.7-5.1 c-1.1,0-2.6,0.6-3.3,1.4C881,138.3,878.5,142,876.2,145.2z M802.2,67.5c0-3.7-3.2-6.9-6.8-6.8c-3.5,0.1-6.5,3.2-6.5,6.7 c0,3.7,3.2,6.8,6.8,6.8C799.2,74.1,802.2,71,802.2,67.5z M737.9,24.7c-4.6,4-4.6,7.7-0.2,12.4c3.9,4.3,7.6,4.5,11.7,0.5 C745.6,33.4,741.9,29.1,737.9,24.7z M841.5,37.8c5,3.8,8.7,3.3,12.5-1.4s3.6-8.1-0.9-11.7C849.3,29,845.5,33.3,841.5,37.8z M807.9,58.4c-1.6-4.2-3.8-5.3-7.1-5.1c-3.7,0.3-7.4,0.3-11,0c-3.4-0.2-5.2,1.3-6.5,5.1c2.8-0.6,5.2-0.8,7.3-1.6 c3.4-1.3,6.6-1.3,10,0C802.7,57.6,805,57.8,807.9,58.4z M820.3,73.7c-2.6-4.6-5.7-5.9-11.7-4.4c-1.2,0.3-2,2.4-3.5,4.4 C810.9,73.7,815.4,73.7,820.3,73.7z M785.1,73.6c-1.3-4.4-1.3-4.5-3.8-4.4c-3.9,0.1-8.6-1.5-10.2,4.4 C775.7,73.6,780.3,73.6,785.1,73.6z M789.3,49.9c4.5,0,8.1,0,12.5,0c-2.3-2.9-4.2-5.2-6.3-7.9C793.4,44.7,791.6,46.9,789.3,49.9z M806,61.5c1.4,4.7,2.6,5.3,7.7,3.6C812.4,61.5,809.8,60.4,806,61.5z M777.3,65.3c6.1,1.4,6.9,1,7.4-3.9 C781.1,60.4,778.6,61.7,777.3,65.3z M797,101.9c-0.3,0.2-0.6,0.4-0.9,0.6c0.6,1.5,1.1,3,1.7,4.5c1.2-1,2.4-2,4.4-3.7 C799.6,102.6,798.3,102.3,797,101.9z M795,102.5c-0.3-0.2-0.7-0.4-1-0.6c-1.3,0.5-2.6,0.9-4,1.4c-0.1,0.4-0.2,0.7-0.3,1.1 c1.2,0.9,2.5,1.8,3.7,2.7C793.9,105.5,794.5,104,795,102.5z M802.6,103.7c-0.4,2.4-0.6,3.9-0.9,5.4c1.7-0.1,3.3-0.2,5-0.4 c0-0.4,0-0.8,0.1-1.2C805.6,106.6,804.6,105.6,802.6,103.7z M787.4,131c-1.8-1-2.7-1.9-3.5-1.8c-0.8,0.1-1.4,1.3-2,2 c0.7,0.7,1.4,1.8,2.1,1.9C784.8,133.1,785.7,132.1,787.4,131z M806,127.5c1.1-0.8,2.1-1.5,3.2-2.3c-0.7-0.8-1.4-2.2-2.1-2.3 C804.3,122.7,805,124.8,806,127.5z M782.1,126.9c1.8-0.2,4.1,1.1,3.9-2c0-0.7-1.2-2-1.9-2C781.1,122.6,782,124.8,782.1,126.9z M809.4,129.6c-0.3-0.3-0.6-0.6-0.8-0.8c-1.2,0.4-2.5,0.7-3.4,1.4c-0.4,0.3-0.1,2,0.4,2.5s2.2,0.7,2.5,0.3 C808.8,132,809,130.7,809.4,129.6z M784,107.4c0.2,0.5,0.3,1,0.5,1.4c1.6,0.1,3.2,0.3,4.9,0.4c-0.3-1.5-0.6-3-0.8-4.5 c-0.5-0.1-0.9-0.3-1.4-0.4C786.1,105.3,785,106.3,784,107.4z M782.1,113.9c0.3,0.4,0.5,0.8,0.8,1.1c1.2-0.6,2.5-1.3,3.7-1.9 c-1-1-1.9-2-3.4-3.5C782.7,111.7,782.4,112.8,782.1,113.9z M808.1,110.5c-0.3-0.2-0.7-0.3-1-0.5c-0.8,1.1-1.7,2.2-2.5,3.2 c1.3,0.5,2.6,1,4.8,1.9C808.8,112.8,808.4,111.7,808.1,110.5z M804.6,117c0.5,1.4,0.7,2.8,1.4,3.4c0.6,0.5,1.9,0.1,3.1,0.1 c-0.1-1.5-0.1-2.5-0.2-3.5C807.6,117,806.5,117,804.6,117z M781.9,117c0.1,1.4,0.2,2.4,0.3,3.4c3.1,0.7,4.7,0.1,3.5-3.4 C784.6,117,783.4,117,781.9,117z"/><path fill="#4A4A49" d="M1409.2,61.8c-4.4-4.1-8.3-7.4-11.7-11.2c-4.9-5.4-8.3-11.6-9.1-18.9c-0.9-7.7,1.4-14.3,7-19.7 c5.7-5.4,12.7-8.2,20.6-9.9c0.7,2.1,1.4,4,2,5.9c-12.4,8.1-13.8,18.4-4.3,29.6c0.9,1.1,1.9,2.1,3,3.1c7.4,7,14.4,14.6,22.3,20.9 c7.6,6,10.1,12.9,9.8,22.5c-0.7,21.5-0.3,43-0.2,64.5c0,2.6-0.7,4.1-3.1,5.2c-11.5,5.3-22.7,11.3-35.3,14.1 c-5.1,1.1-10,0.6-14.3-2.5c-4.4-3.2-8.9-6.5-12.4-10.6c-2.2-2.4-3.7-6.3-3.7-9.6c-0.3-18.3-0.3-36.6-0.1-54.9 c0.1-8.4,4.3-14.7,11.4-18.9c4.4-2.6,9-4.7,13.6-7.1C1405.7,63.6,1406.9,63,1409.2,61.8z M1426.4,116.5c0-10.1-0.1-20.2,0.1-30.3 c0.1-4.6-1.5-8.2-4.7-11.5c-6.9-7.1-6.9-7.1-15.4-1.8c-3.1,1.9-4.9,4.3-4.9,8.1c0,21,0,42,0,63c0,6.1,4.1,10.6,10.2,10.6 c3.9,0,7.9-1.2,11.8-2c2.4-0.5,3-2,3-4.4C1426.3,137.7,1426.4,127.1,1426.4,116.5z"/><path fill="#4A4A49" d="M1156.8,62.2c-2.9-3-5.5-5.4-7.9-8c-5.7-6-10.6-12.5-12-21c-1.5-9.1,1.2-16.6,8.3-22.5 c5.5-4.6,11.9-7,19.1-8.6c0.7,2.1,1.4,4,2,5.8c-12.9,8.8-13.9,19.6-3.3,30.9c0.8,0.9,1.7,1.7,2.5,2.5c9.5,9,18.9,18,28.5,26.9 c2,1.9,2.8,3.8,2.8,6.5c-0.1,24.6-0.1,49.2,0,73.7c0,2.8-0.9,4.2-3.4,5.4c-11.4,5.3-22.5,11.2-34.9,14c-5.1,1.1-10.1,0.7-14.3-2.4 c-4.5-3.3-9-6.7-12.7-10.8c-2-2.2-3.5-5.9-3.5-9c-0.3-18.6-0.3-37.3-0.1-55.9c0.1-8.2,4.4-14.2,11.2-18.2c4.4-2.6,9-4.7,13.6-7.1 C1153.9,63.6,1155.1,63,1156.8,62.2z M1174.6,116.3c0-10.1-0.1-20.2,0.1-30.3c0.1-4.5-1.4-8-4.5-11.2c-6.9-7.2-7.1-7.2-15.7-1.8 c-3.2,2-4.7,4.6-4.7,8.5c0.1,20.8,0,41.5,0.1,62.3c0,6.3,4,10.8,10.3,10.8c3.6,0,7.2-1,10.8-1.7c2.8-0.6,3.9-2.3,3.8-5.4 C1174.4,137.2,1174.6,126.8,1174.6,116.3z"/><path fill="#4A4A49" d="M510.8,153c-5.2,5.2-10.1,10.2-15.3,15.4c-9.1-6.5-16.3-13.8-16-26.6c0.5-18.7,0-37.5,0.2-56.3 c0.1-7.5-1.7-13.6-9.2-17.3c5.4-6,10.6-11.8,15.7-17.6c5.8,3.2,8,5.9,14.2,16.7c3.7-2,7.5-3.9,11.2-5.9c6.4-3.4,12.8-6.7,19.2-10.2 c1.9-1,3.2-0.9,4.8,0.4c8.8,6.8,13.9,15.3,13.8,26.8c-0.2,18.4,0.1,36.8-0.1,55.2c-0.1,8.4,2.8,14.7,10.2,18.8 c0.3,0.2,0.6,0.3,0.5,0.3c-5,5.3-9.9,10.5-15,15.9c-9.8-6.9-18.5-13.6-18-27.4c0.7-19,0.2-38,0.2-57c0-12.1-5.4-16-17-12.4 c-8.4,2.7-8.4,2.7-8.4,11.5c0,17.1,0.1,34.2-0.1,51.3C501.6,142.4,504.1,148.7,510.8,153z"/><path fill="#4A4A49" d="M1320.6,152.9c-5.1,5.4-10,10.5-15.2,16.1c-3.6-3.5-7.3-6.7-10.6-10.2c-3.7-4-5.2-9-5.2-14.4 c0-19.2,0-38.5,0-57.7c0-10.6-0.6-11.9-8.8-18.6c5.1-5.7,10.3-11.5,15.6-17.4c6.5,4,10.9,9.5,13.8,16.8c1.3-0.6,2.4-1.1,3.5-1.7 c9-4.8,18.1-9.5,27-14.4c2-1.1,3.4-0.9,5.1,0.4c8.6,6.8,13.7,15.1,13.5,26.5c-0.3,18-0.1,36.1-0.1,54.2c0,11.1,1.8,14.5,10.7,20.4 c-4.9,5.2-9.8,10.4-15.4,16.4c-4.8-4.7-9.6-8.9-13.8-13.6c-3-3.4-3.5-7.9-3.5-12.4c0.1-20,0-39.9,0-59.9c0-1.8-0.1-3.6-0.5-5.3 c-1-4.9-4.1-7.9-9-7.3s-9.8,2.5-14.5,4.1c-0.8,0.3-1.5,2-1.5,3.1c-0.1,19.6-0.1,39.2,0,58.8C1311.8,143.7,1315,149.2,1320.6,152.9z"/><path fill="#4A4A49" d="M590,67.6c0,3.1,0,5.5,0,7.9c0,5.6-0.1,11.2,0.1,16.7c0.2,5.4,2.9,8.3,8.3,9c6.2,0.8,12.5,1.1,18.8,2 c15.6,2.4,22.9,13.9,17.3,28.8c-2.3,6.2-6.3,11.9-10.5,17.1c-4.6,5.8-10.4,10.8-15.5,16.2c-1.3,1.4-2.3,1.4-4,0.6 c-5.2-2.3-10.4-4.8-15.8-6.5c-6.4-2-12.3-0.4-17.1,4.4c-2,2-3.1,0.9-4.9,0c-1.9-1-2.2-2.2-1.4-4c1.3-2.8,2.2-5.8,3.7-8.5 c5.5-10.2,12.1-13.4,23.3-10.4c5.4,1.4,10.5,4.1,15.8,6.3c1.1,0.4,2,1.1,3.3,1.9c0.1-1,0.3-1.7,0.3-2.4c0-7.8,0.1-15.7,0-23.5 c-0.1-7-3.2-10.4-10.2-11.3c-3.8-0.5-7.5-0.9-11.3-1.5c-15.3-2.3-24.4-12.3-24.8-27c-0.1-4.8,1.3-9.3,4.8-12.2 c7.8-6.7,16-13,24.1-19.3c0.6-0.5,2.2,0,3.2,0.3c3.7,1.3,7.2,3.2,10.9,4.2c9.9,2.6,15.1,0.3,20.6-8.4c1.7,0.3,3.5,0.7,5.6,1.1 c-0.9,8-2.3,15.5-7.2,21.9c-4.7,6-11.2,7.3-18,5.4c-5.2-1.4-10-4.2-15-6.4C593,69.5,591.9,68.7,590,67.6z"/><path fill="#4A4A49" d="M1269.1,150.4c-5.5,6-10.4,11.4-15.5,16.8c-0.5,0.6-1.8,1-2.5,0.8c-7.3-2-14.9-3.4-21.7-6.5 c-10.8-4.8-16.9-14.3-17.7-25.8c-1.1-16.5-0.9-33.2-0.7-49.8c0.1-7.5,4.5-13.3,11-16.8c12.4-6.7,25-13,38.1-19.7 c6.3,10.8,13.6,20.8,15.7,33.3c0.8,4.6,0,9.3-3.1,12.8c-3.1,3.6-6.8,7-10.9,9.3c-8.4,4.7-17.1,8.7-25.8,12.9 c-2.4,1.2-3.5,2.4-3.5,5.3c0.1,16.1,6.7,23.1,24.9,25.9C1261,149.6,1264.7,149.9,1269.1,150.4z M1232.6,110.2 c5.2-2.6,9.7-4.8,14.3-7c4.1-2,6.4-5.3,6.9-9.7c1.4-10.3-3-18.9-8.5-27.1c-2.4,1.1-4.4,2-6.4,2.9c-4.3,2-6.5,5.1-6.3,10.1 c0.3,6.8,0.1,13.5,0.1,20.3C1232.6,102.9,1232.6,106.2,1232.6,110.2z"/><path fill="#4A4A49" d="M450.8,49.1c4.8,9.7,10,18.7,13.6,28.2c4.3,11.1,0,20.9-10.7,26.7c-9.1,4.9-18.4,9.4-27.7,13.8 c-2.7,1.3-3.3,2.9-3.5,5.7c-0.6,11.4,2.5,19.8,18.7,24.1c5.6,1.5,11.4,2,17.6,3.1c-5.3,5.7-10.3,11.3-15.5,16.7 c-0.5,0.5-1.8,0.8-2.6,0.6c-6.4-1.6-13.1-2.8-19.1-5.3c-14.4-6-20.2-18.2-20.8-32.9c-0.6-13.7-0.2-27.5-0.1-41.3 c0.1-8.4,3.7-15.1,11.1-19.1C424.2,62.6,437,56.2,450.8,49.1z M435.3,66.3c-2.4,1.1-4.3,2-6.3,2.9c-4.5,2-6.7,5.1-6.5,10.3 c0.3,8.2,0.1,16.4,0.1,24.6c0,1.8,0,3.7,0,6.3c6-3.2,11.6-5.6,16.6-8.9c2.1-1.4,3.7-4.5,4.2-7C445.8,83.8,440.9,75.1,435.3,66.3z"/><path fill="#4A4A49" d="M223.4,49.2c4.7,9.6,9.9,18.4,13.6,27.8c4.3,11.1,0.1,20.9-10.3,26.9c-2.4,1.4-4.9,2.5-7.3,3.7 c-7.2,3.6-14.4,7.2-21.7,10.7c-1.9,0.9-2.7,2.1-2.5,4.1c0.2,1.5,0,3.1,0,4.6c-0.1,8.4,3.7,14.7,11.3,17.7c6.2,2.4,13,3.4,19.5,5 c1.6,0.4,3.3,0.4,5.7,0.6c-5.7,6.1-10.8,11.8-16.1,17.3c-0.4,0.5-1.6,0.5-2.3,0.3c-6.3-1.6-12.8-2.7-18.8-5.1 c-12.2-4.9-18.5-14.7-20.5-27.5c-0.5-2.9-0.8-5.9-0.8-8.8c-0.1-12.6-0.1-25.2,0-37.8c0.1-8.6,3.8-15.5,11.4-19.6 C197.1,62.5,209.8,56.2,223.4,49.2z M208,66.3c-2.4,1.1-4.3,2-6.3,2.9c-4.5,2-6.7,5.2-6.5,10.3c0.3,8.4,0.1,16.9,0.1,25.3 c0,1.6,0,3.2,0,5.5c6-3.1,11.4-5.4,16.3-8.6c2.1-1.4,3.8-4.4,4.4-6.9C218.6,84,213.6,75.2,208,66.3z"/><path fill="#4A4A49" d="M993.3,53.7c1.2,1.3,2.2,2.4,3.5,3.8c-0.8,1-1.6,2-2.4,3c-11.9,14.6-17.2,31.1-14,49.8 c4.6,26.6,29.3,40.7,55.7,32c12-4,21.4-11.5,28.8-21.7c0.7-1,1.4-1.9,2.1-2.9c0.1-0.1,0.2-0.1,0.6-0.3c1.2,0.6,2.5,1.2,4.1,2 c-1.4,7.8-4.5,14.8-8.9,21.2c-13,19-30.5,29.6-54,28.3c-31.2-1.7-55.3-31.3-51.1-62.2c2.7-19.5,13.1-34.3,27.4-46.8 c2.1-1.8,4.2-3.4,6.4-5.1C991.9,54.4,992.4,54.2,993.3,53.7z"/><path fill="#4A4A49" d="M949.4,39.7c3.5-16,10.1-29,26.6-34.1c8-2.5,16.1-1.6,23.8,1.4c11.9,4.6,23.5,10.2,35.4,14.8 c6.8,2.6,13.9,5.1,21.1,5.9c10.5,1.1,16.7-5.3,17.3-15.8c0.1-1.2,0.1-2.3,0.2-3.4c6.2-1.2,6.6-1.2,7,4.7c0.3,5.6,0.6,11.5-0.6,16.9 c-3.1,15-14.7,23.2-30.8,22.8c-7.6-0.2-14.7-1.9-21.7-4.9c-13-5.6-25.9-11.1-39.1-16.2c-3.8-1.5-8.1-2-12.2-2.2 c-9.1-0.4-16.7,2.4-20.7,11.8C953.7,40.9,951.8,40.4,949.4,39.7z"/><path fill="#4A4A49" d="M315.9,63.9c-3.7,5.7-7.1,11.2-10.8,16.6c-1.3,2-2.9,2.4-5.3,0.7c-9-6.3-17.1-5-24,3.5 c-0.8,1-1.2,2.6-1.2,3.9c-0.1,14.7,0,29.5-0.1,44.2c0,6.2,2.5,11.1,7.7,14.4c3.4,2.1,7.1,3.7,11.1,5.8c-4.6,4.9-9.2,9.8-13.9,14.6 c-0.4,0.4-1.8,0.4-2.5,0c-5-3-10.2-5.7-14.8-9.2c-6.8-5.1-9.8-12.2-9.7-20.8c0.1-17.1,0-34.2,0-51.3c0-1.3,0-2.6,0-3.9 c0-6.7-1.9-12.4-8.9-15.6c5-5,9.7-9.9,14.7-14.6c0.5-0.5,2.2-0.1,3.1,0.4c7.6,4.4,12.1,10.9,12.4,19.9c0,0.8,0.1,1.6,0.2,3.2 c1.3-1.1,2.3-1.8,3.1-2.7c6.4-6.2,12.9-12.3,19.2-18.6c1.7-1.7,2.9-1.8,4.8-0.4C305.8,57.3,310.6,60.4,315.9,63.9z"/><path fill="#4A4A49" d="M1078.3,79.6c5-5.8,10-11.6,15.2-17.7c8.9,6.1,15.3,13.4,15,24.7c-0.3,14.8-0.5,29.7-1.3,44.5 c-0.5,9,1.2,16.8,9.1,22.4c-5.3,5.1-10.4,9.9-15.6,14.8c-10.3-6.7-16.2-15.2-15.6-27.8c0.8-15.3,1-30.6,1.4-45.9 C1086.8,88,1085.5,85.7,1078.3,79.6z"/><path fill="#4A4A49" d="M1034,60.8c2.8,2.4,4.3,3.7,6,5.1c-0.6,0.9-1.2,1.8-1.8,2.6c-2.8,3.9-4.2,8.1-4.1,12.9 c0.1,8.9,0.1,17.8-0.1,26.7c0,1.6-0.9,3.7-2.1,4.8c-4.9,4.8-10.1,9.4-15.3,13.8c-0.9,0.8-2.7,1.1-3.9,0.8c-1.8-0.4-3.3-1.3-3.2-3.9 c0.2-9.8,0-19.7,0.1-29.5c0-4.9,1.9-9.2,5.3-12.9C1021.1,74.6,1027.4,67.9,1034,60.8z"/><path fill="#4A4A49" d="M1089.2,35.4c0-7.4,5.6-13.2,12.9-13.3c7.5-0.1,13.4,5.9,13.4,13.2c0,7.2-5.9,13.1-13.2,13.1 C1094.9,48.4,1089.2,42.8,1089.2,35.4z"/><path fill="#4A4A49" d="M795.5,164.9c3,0,5.5,2.5,5.5,5.4c0,2.8-2.3,5.1-5.2,5.2c-3.1,0.1-5.6-2.2-5.7-5.1 C790,167.5,792.6,164.9,795.5,164.9z"/><path fill="#4A4A49" d="M787.9,161.6c-3,0-5.4-2.4-5.3-5.5c0.1-2.9,2.3-5.1,5.2-5.1s5.3,2.2,5.4,5 C793.3,159,790.8,161.6,787.9,161.6z"/><path fill="#4A4A49" d="M803.1,151c3-0.1,5.3,2.1,5.4,5c0.2,3-2.1,5.5-5.1,5.6c-2.9,0.1-5.5-2.4-5.5-5.4 C797.9,153.4,800.2,151.1,803.1,151z"/><path fill="#4A4A49" d="M778.3,152.5c0,2.9-2.3,5.2-5.2,5.3c-3.1,0.1-5.4-2.3-5.4-5.3s2.5-5.4,5.5-5.3 C776,147.2,778.3,149.7,778.3,152.5z"/><path fill="#4A4A49" d="M823.4,152.3c0.1,3-2.2,5.5-5.3,5.5c-2.8,0-5.2-2.3-5.3-5.1c-0.1-2.9,2.4-5.5,5.3-5.5 C820.9,147.2,823.3,149.5,823.4,152.3z"/><path fill="#4A4A49" d="M784.4,168.6c0.1,3-2.2,5.2-5.1,5.2c-2.8,0-5-2.1-5.1-4.9c-0.1-2.9,2-5.3,4.9-5.4 C781.9,163.4,784.3,165.7,784.4,168.6z"/><path fill="#4A4A49" d="M816.9,168.6c0.1,3-2,5.2-5,5.2c-2.8,0-5-2-5.1-4.8c-0.1-2.9,2-5.4,4.9-5.5 C814.4,163.4,816.8,165.6,816.9,168.6z"/></g></svg>