<?xml version="1.0" encoding="utf-8"?>
<!-- Generator: Adobe Illustrator 24.0.0, SVG Export Plug-In . SVG Version: 6.00 Build 0)  -->
<svg version="1.2" baseProfile="tiny" id="Layer_1" xmlns="http://www.w3.org/2000/svg" xmlns:xlink="http://www.w3.org/1999/xlink"
	 x="0px" y="0px" viewBox="0 0 1347.3 234.6" xml:space="preserve">
<g>
	<path fill="#4A4A49" d="M1258.9,233.7c-3-0.6-6-1.1-9-1.7c-9.1-2-17.7-5.2-23.3-13.2c-6.8-9.8-6.7-23.1,4.1-31.4
		c4.4-3.4,9.6-6,14.4-8.9c-0.3-0.1-1.1-0.5-1.9-0.9c-14.5-5.7-17.2-21.7-10.2-33.2c3.3-5.5,8-9.4,13.3-12.8c0.5-0.3,1-0.7,1.4-1
		c-2.5-3.1-5.2-5.9-7.4-9.1c-4.1-5.9-6.3-12.6-7.3-19.7c-1.5-11.2-0.1-22.1,5.1-32.2c7.6-15,19.8-23.9,36.3-27.3
		c7.9-1.6,15.7-1.1,23.3,0.8c2.4,0.6,3.1-0.1,4-2c3.1-6.7,7.3-12.8,13.3-17.3c6.7-4.9,14-7.4,22.3-5.1c4.8,1.3,7.7,4.4,9.2,9
		c0.2,0.5,0.5,1,0.8,1.4c0,2.1,0,4.2,0,6.2c-0.9,1.7-1.5,3.6-2.6,5.1c-4.8,6.9-15.1,7-20.2,0.3c-3.7-4.8-7.7-4.8-11.3,0
		c-1.1,1.5-2,3.2-3,4.8c-0.8,1.3-0.6,2.2,0.9,3.1c5.9,3.5,10.7,8.2,14.3,14c8.5,13.8,10.5,28.7,6.8,44.3
		c-3.4,13.9-11.4,24.7-24.7,30.5c-16.5,7.2-33.2,6.7-49.6-0.8c-1.8-0.8-3-1-4.2,0.6c-1.5,1.9-3.4,3.6-4.1,5.8
		c-2.2,6.3-0.5,11.6,7.1,12.8c2.5,0.4,5.1,0.7,7.7,0.7c16.3,0.1,32.6-0.1,48.9,0.1c4.3,0,8.7,0.4,12.9,1.3
		c10.3,2.3,17.9,7.9,20.3,18.9c0.2,0.9,0.6,1.8,0.9,2.7c0,2.4,0,4.9,0,7.3c-0.2,0.6-0.5,1.2-0.7,1.8c-1.1,3.9-1.8,7.9-3.4,11.6
		c-4.5,10.4-12.7,17.3-22.5,22.3c-11.2,5.8-23.4,8.5-35.9,9.9c-2.8,0.3-5.6,0.8-8.3,1.2C1270.7,233.7,1264.8,233.7,1258.9,233.7z
		 M1305.9,90.8c-0.1-2.4-0.2-6.4-0.6-10.5c-0.6-6.1-1.6-12.1-4.6-17.7c-6.7-12.6-23.5-13.5-30.8-1.3c-2.5,4.1-4.2,9-4.7,13.7
		c-1,8.5-1.2,17-1.1,25.6c0,6.5,1.2,12.9,3.6,18.9c3.9,9.8,12.3,14.3,22.5,11.6c7.1-1.9,10.5-7.4,12.7-13.9
		C1305.4,109.3,1305.7,100.9,1305.9,90.8z M1292.6,181.3c0,0.1,0,0.2,0,0.4c-5,0-10.1-0.3-15.1,0.1c-5.8,0.4-11.7,1-17.3,2.4
		c-6.4,1.6-12,4.9-13.8,11.8c-2.3,9.1,1.4,18.3,13.1,21c14.2,3.3,28.4,3.3,42.6-0.2c7.5-1.9,14.4-5,20-10.4
		c3.3-3.2,5.6-6.8,5.8-11.7c0.5-8.5-5-11.6-10.6-12.1C1309,181.8,1300.8,181.7,1292.6,181.3z"/>
	<path fill="#4A4A49" d="M82.3,0c1.7,0.4,3.4,0.9,5.2,1.1c6.8,0.9,12.9,3.5,18.9,6.7c2.3,1.2,4.9,2.2,7.4,2.9
		c3.8,1.1,6.5-0.1,8.6-3.5c1.3-2.2,3-3.2,5.6-3.2c2,0,2.7,0.5,2.7,2.6c-0.1,14.2,0,28.4,0,42.7c0,2,0,3.9,0,5.9
		c-6.1,1.1-11.5-1.1-14-6.3c-2.6-5.4-4.5-11.2-6.6-16.8c-3.3-8.8-8.7-15.8-18.2-18.4c-16.5-4.6-29-1.6-40,13.6
		C44.4,37.6,41.1,49.5,39,61.8c-2.2,12.7-2.8,25.6-2.4,38.5c0.5,15.9,2.1,31.7,8.1,46.7c4.4,10.8,10.8,20,21.8,25.2
		c10.1,4.7,28.9,3.2,37.6-5.8c3.9-4,6.5-8.9,8.5-14.1c1.9-4.8,3.6-9.7,5.8-14.3c2.9-6.1,8.1-8.7,14.8-7.9c0.1,0.8,0.2,1.6,0.2,2.4
		c0,10.5,0,21,0,31.5c0,1.9-0.5,3.3-1.9,4.6c-7.8,7.4-17.4,11.2-27.6,14c-10.7,2.9-21.7,4.3-32.8,3.7c-14.7-0.9-28-5.6-39.4-15
		C16.6,158.9,8.2,142.5,4,123.8c-1.3-5.6-1.8-11.4-2.7-17.1c-0.1-0.6-0.4-1.3-0.6-1.9c0-5.6,0-11.1,0-16.7c0.6-3.5,1.1-7.1,1.7-10.6
		c3.1-19.9,10-38,23.2-53.5C34.5,13.1,45.7,5.7,59.3,2.2c3.1-0.8,6.3-1.5,9.4-2.2C73.2,0,77.8,0,82.3,0z"/>
	<path fill="#4A4A49" d="M1080.9,0c1.4,0.6,2.7,1.1,4.1,1.7c7.3,3.1,11.8,11.7,10.2,19c-1.9,8.5-8.8,14.1-17.4,14
		c-8.2-0.1-15-5.8-16.6-13.9c-1.7-8.6,3.2-16.9,11.6-19.7c0.8-0.3,1.6-0.8,2.4-1.2C1077.1,0,1079,0,1080.9,0z"/>
	<path fill="#4A4A49" d="M918,0c1.5,0.7,3.1,1.4,4.5,2.1c6.5,3.5,9.8,8.9,9.4,16.2c-0.4,7.3-4.2,12.6-11,15.2
		c-6.9,2.7-13.4,1.1-18.6-4.1c-8.8-8.8-5.2-24,6.5-28.3c1-0.4,1.9-0.9,2.9-1.3C913.8,0,915.9,0,918,0z"/>
	<path fill="#4A4A49" d="M501.5,182.1c-16.1,0-31.9,0-48,0c0-2.1-0.4-4.2,0.1-6.1c0.3-1.2,1.8-2.5,3.1-2.9c5.3-1.7,6.4-2.9,6.4-8.5
		c0-28.4,0-56.7,0-85.1c0-2.9-0.3-5.9-1-8.7c-1.7-7.4-6.8-11.2-14.8-11.6c-8.8-0.4-16.2,2.9-22.6,8.6c-8.6,7.7-8.5,7.7-8.5,19.3
		c0,25.8,0,51.5,0,77.3c0,5.7,1,7.1,6.5,8.6c2,0.6,3.1,1.6,3.1,3.8c0,1.7,0,3.4,0,5.4c-15.9,0-31.7,0-47.7,0c0-1.9-0.1-3.8,0-5.6
		c0.2-1.9,1.2-3,3.2-3.5c5-1.2,6.1-2.7,6.1-7.8c0-34.2,0-68.3,0-102.5c0-5.1-1-6.4-6-7.7c-2.2-0.6-3.6-1.8-3.5-4.4
		c0.1-1.6,0-3.3,0-5.1c12.3,0,24.4,0,36.7,0c0,4.9,0,9.7,0,15.2c1.7-1.5,3-2.5,4.3-3.6c7.9-7.3,16.7-13.3,27.4-14.9
		c14.2-2.2,27.9-0.9,38.3,10.9c3.9,4.4,5.8,10,6.6,15.8c0.6,4.4,0.7,8.8,0.7,13.2c0.1,27.1,0,54.3,0,81.4c0,1.3,0.2,2.6,0.3,3.9
		c0.3,2.9,1.9,4.4,4.6,5.2c4.6,1.2,4.8,1.5,4.8,6.5C501.5,179.9,501.5,180.8,501.5,182.1z"/>
	<path fill="#4A4A49" d="M1153.3,182.1c-16.1,0-31.7,0-47.8,0c0-2.1-0.4-4.3,0.1-6.2c0.3-1.2,1.8-2.5,3.1-2.9c5-1.6,6.1-2.9,6.1-8.1
		c0-34.2,0-68.3,0-102.5c0-4.7-1.2-6.3-5.8-7.4c-3.1-0.8-3.8-1.7-3.8-5.7c0-4.5-0.4-3.9,3.8-4c10,0,19.9,0,29.9,0c0.9,0,1.9,0,3.1,0
		c0,5,0,9.8,0,15.3c1.9-1.6,3.2-2.7,4.5-3.8c7.8-7.1,16.4-12.9,26.9-14.6c13.9-2.2,27.2-0.9,37.6,10c5.7,6.1,7.8,13.8,7.9,21.9
		c0.2,30,0.2,60,0.2,90c0,4.6,0.9,7.9,6.6,8.7c2.1,0.3,3,1.9,3.1,3.9c0.1,1.6,0,3.3,0,5.1c-16,0-31.8,0-48,0c0-2.1-0.3-4.2,0.1-6.3
		c0.2-1.1,1.7-2.4,2.8-2.7c5.7-1.1,6.6-3.2,6.7-9c0.1-7.8,0-15.6,0-23.4c0-19.9,0-39.9,0-59.8c0-3.4-0.3-6.8-1-10
		c-1.6-7.3-6.9-11.3-14.8-11.6c-9.1-0.4-16.4,3.4-23.3,9c-6.2,5-8.2,10.8-8,18.8c0.5,26.1,0.2,52.2,0.2,78.3c0,4.4,1.4,6.2,5.6,7.4
		c3.5,1,4,1.6,4,5.3C1153.3,179.2,1153.3,180.5,1153.3,182.1z"/>
	<path fill="#4A4A49" d="M374.3,182.1c-12.2,0-24.2,0-36.6,0c0-4.9,0-9.7,0-15.1c-2.5,2.1-4.4,3.8-6.3,5.5
		c-8,6.9-16.9,12.3-27.5,13.4c-12.9,1.3-25.3-0.1-35-10.1c-5.4-5.6-7.7-12.8-7.9-20.3c-0.4-14.7-0.3-29.5-0.3-44.2
		c0-15.5,0-31,0-46.6c0-1.5-0.1-2.9-0.3-4.4c-0.3-2.7-1.9-4.4-4.4-5.1c-4.9-1.5-4.9-1.4-4.9-6.5c0-1,0-2,0-3.2c12.8,0,25.4,0,38.3,0
		c0,1.2,0,2.3,0,3.3c0,32.9,0,65.7,0.1,98.6c0,3.7,0.5,7.4,1.5,11c1.6,5.9,6.4,9.2,12.5,9.9c12.7,1.4,21.7-5,29.9-13.6
		c2.5-2.6,3.1-5.4,3.1-8.8c-0.1-27.5-0.1-55-0.1-82.5c0-5.9-0.7-7-6.4-8.6c-2.2-0.6-3.2-2-3.4-4c-0.1-1.7,0-3.4,0-5.3
		c1-0.1,1.9-0.1,2.7-0.1c10.9,0,21.9,0.1,32.8-0.1c2.5,0,3,0.9,3,3.1c-0.1,38.1,0,76.1,0,114.2c0,1.6,0.1,3.3,0.3,4.9
		c0.2,2.4,1.5,4,3.7,4.8C374.6,174.4,375.2,175.5,374.3,182.1z"/>
	<path fill="#4A4A49" d="M195.8,186.1c-15,0-28.1-4.9-38.7-15.6c-8.8-8.9-13.6-20-16.3-32c-2-9-2.9-18.1-2.6-27.3
		c0.5-15.9,3.1-31.3,11.9-45c9.3-14.5,22.6-22.7,39.7-24.5c27.7-3,50.3,12.5,59,38.6c4.6,13.7,5.8,27.8,4.8,42.2
		c-0.8,12-3.2,23.7-8.9,34.4c-8.6,16.4-22.1,26.1-40.5,28.8c-0.9,0.1-1.9,0.4-2.8,0.4C199.4,186.2,197.6,186.1,195.8,186.1z
		 M222.3,114c-0.5-8.6-0.7-17.3-1.5-25.9c-0.8-8.5-2.5-16.8-6.7-24.5c-6.8-12.6-22.7-13.4-31.2-6.3c-5.2,4.3-7.5,10.4-9.2,16.7
		c-3.6,13.5-3.9,27.3-3.8,41.1c0,9.4,0.8,18.8,1.8,28.2c0.9,8,3,15.8,7.5,22.8c7.1,11.1,25.9,11.5,33.3,0.4
		c3.6-5.4,5.6-11.4,6.8-17.7C221.6,137.4,222.1,125.8,222.3,114z"/>
	<path fill="#4A4A49" d="M656.9,45.4c15.6,0,30.9,0,46.5,0c0,2.2,0.3,4.4-0.1,6.4c-0.3,1.1-1.7,2.3-2.9,2.7
		c-4.3,1.6-5.3,2.7-4.3,7.3c1.8,8.7,3.8,17.3,6,25.9c4.9,18.5,9.9,36.8,14.9,55.3c0.4,1.4,0.9,2.9,1.3,4.3c0.2,0,0.5,0,0.7,0
		c0.9-3,1.9-5.9,2.8-8.9c5.4-18,10.9-35.9,16-53.9c2.2-7.6,3.5-15.4,5.1-23.2c0.8-3.9-0.5-5.9-4.2-7.1c-2.5-0.8-3.5-2.2-3.3-4.7
		c0.1-1.3,0-2.6,0-4.1c11.2,0,22.2,0,33.6,0c0,2,0.2,4.1-0.1,6.1c-0.2,0.9-1.4,2-2.4,2.3c-3.2,1-5,3.2-5.9,6.3
		c-7.7,24.6-15.5,49.2-23.3,73.8c-6.4,20.2-12.8,40.4-19.3,60.5c-2.7,8.4-6.2,16.4-11.5,23.6c-7.6,10.2-17.8,14.3-30.3,13.5
		c-6.6-0.4-12.5-2.2-17.2-7.2c-6.6-6.9-6-19.4,1.1-24.8c7.3-5.6,18-3.1,22.1,5c0.7,1.4,1.3,2.8,2.1,4.1c2.5,4.3,6.9,4.9,10.4,1.5
		s5-8,7-12.3c2.2-4.7,1.8-9.2,0.3-14.1c-7.4-23.9-14.5-47.9-21.8-71.8c-5.1-17-10.4-34-15.5-51.1c-0.8-2.6-2.2-4.5-4.7-5.5
		c-2.6-1-3.5-2.8-3.2-5.5C657,48.6,656.9,47.1,656.9,45.4z"/>
	<path fill="#4A4A49" d="M826.8,4.1c0,1.4,0,2.3,0,3.3c0,6.1,0,6.1-5.7,8.1c-2.4,0.8-3.7,2.4-4.2,4.8c-0.3,1.4-0.4,2.9-0.4,4.4
		c0,47.6,0,95.2,0,142.8c0,0.9,0,1.9,0,3.1c1.4,0,2.5,0,3.6,0c8.8-0.1,17.5-0.1,26.3-0.3c13.5-0.3,21.1-7,23.5-20.4
		c0.8-4.3,1.9-8.6,3.4-12.7c2.3-6.4,6.7-8.7,13.9-7.9c0,0.9,0.1,1.8,0.1,2.7c0,15.8,0,31.6,0.1,47.4c0,2.3-0.6,2.9-2.9,2.9
		c-35.7-0.1-71.5-0.1-107.2,0c-2.3,0-3.2-0.6-2.9-2.9c0.1-0.8,0-1.7,0-2.6c0.1-3.9,0.5-4.4,4.4-5.4c3.8-1,5.1-2.4,5.6-6.4
		c0.2-1.2,0.3-2.4,0.3-3.6c0-45.4,0-90.9,0-136.3c0-1.2-0.1-2.4-0.3-3.6c-0.5-3.8-2-5.4-5.7-6.4c-3.8-1-4.3-1.4-4.3-5.2
		c0-7-1-5.6,5.5-5.6c14.6-0.1,29.1,0,43.7,0C824.6,4.1,825.5,4.1,826.8,4.1z"/>
	<path fill="#4A4A49" d="M932.7,45.3c11.3,0,22.1,0,32.9,0c4.8,0,9.5,0,14.3,0c1.6,0,2.3,0.5,2.1,2.1c-0.1,0.7,0,1.4,0,2.1
		c0,5.1,0,5.1-5.1,6.1c-2.3,0.4-3.8,2.1-3.4,4.7c0.5,3.7,1.4,7.4,2.5,11c7.4,24.6,14.9,49.2,22.4,73.7c0,0.2,0.2,0.3,0.5,0.9
		c0.4-0.8,0.7-1.3,0.9-1.8c6.4-21.3,12.9-42.6,19.2-64c1.4-4.8,2.4-9.8,3.3-14.8c0.3-1.8,0.1-3.8-0.1-5.7c-0.4-2.8-2.1-4.3-4.8-4.6
		c-3.6-0.5-3.7-0.6-3.7-4.1c0-1.5,0-2.9,0-4.4c0-0.2,0.1-0.5,0.2-0.9c12.1,0,24.1,0,36.5,0c0,2.3,0.2,4.5-0.1,6.7
		c-0.2,0.9-1.5,2.2-2.4,2.4c-3.9,0.7-5.8,3.1-7,6.7c-11,33.7-22.2,67.3-33.2,101c-2.1,6.4-4.2,12.9-6.3,19.3c-0.5,1.4-1.1,2.1-2.7,2
		c-4.3-0.1-8.7-0.1-13,0c-1.6,0-2.4-0.4-2.9-2.1c-7.6-22.5-15.3-44.9-23-67.4c-6.1-17.9-12.2-35.8-18.3-53.7
		c-0.7-2.1-1.9-3.7-4.2-4.6c-4.2-1.6-4.6-2.3-4.6-6.9C932.7,47.8,932.7,46.7,932.7,45.3z"/>
	<path fill="#4A4A49" d="M567.8,45.4c12.2,0,24.1,0,36.3,0c0,9.6,0,19.2,0,28.7c0.2,0,0.4,0.1,0.6,0.1c0.9-2.2,1.7-4.4,2.6-6.6
		c2.7-6.8,6.3-13,11.3-18.4c8.5-9.2,20.9-10.9,30-4.6c4.1,2.8,5.4,7.2,5.6,12c0.2,6-1.1,11.6-6.2,15.4c-6.4,4.7-13.8,3.9-19.5-1.5
		c-1.3-1.2-3-2.5-4.7-2.9c-3.6-0.9-5.5,1.7-7.1,4.4c-4.3,7.3-6.9,15.3-8.2,23.5s-1.9,16.6-2.1,25c-0.3,14.6-0.1,29.3-0.1,44
		c0,5.3,1.5,7.2,6.5,8.3c3.9,0.9,6.1,5.1,4.4,8.6c-0.3,0.5-1.6,0.8-2.4,0.8c-13.9,0-27.7,0-41.6,0c-5.7,0-5.6,0-5.2-5.7
		c0.2-2.1,1.1-3.3,3.1-3.5c4.6-0.6,6.5-3.1,6.4-8.3c-0.1-34,0-68,0-102c0-5.1-1-6.4-6-7.8c-2.3-0.6-3.8-1.9-3.6-4.6
		C567.9,48.8,567.8,47.3,567.8,45.4z"/>
	<path fill="#4A4A49" d="M559.8,159.3c2.3,1.5,5,3.3,7.9,5.3c-2,4.5-4.8,8.2-8.3,11.5c-10.2,9.7-29.8,11.2-41.1,3.1
		c-5.6-4-8-9.8-9.1-16.3c-0.5-3-0.7-6-0.7-9c0-31.1,0-62.3,0-93.4c0-1,0-2,0-3.3c-5.3,0-10.2,0-15.5,0c0-2.3-0.3-4.4,0.1-6.4
		c0.2-0.8,1.6-1.8,2.6-2c6.4-1.8,12-5,16.7-9.5c6.4-6.1,10-13.8,12.2-22.2c1.7-6.5,5-8.8,12.3-7.8c0,11.9,0,23.8,0,36
		c8.4,0,16.5,0,24.8,0c0,4.1,0,7.8,0,11.9c-8.1,0-16.3,0-24.5,0c-0.1,1-0.2,1.8-0.2,2.5c0,33,0,65.9,0,98.9c0,1.7,0.1,3.5,0.4,5.2
		c1.3,6.9,7.8,7.9,12.9,4.8C554,166.3,556.5,162.6,559.8,159.3z"/>
	<path fill="#4A4A49" d="M890.6,45.3c1.3,0,2.2,0,3.1,0c10.6,0,21.2,0,31.7,0c3.5,0,3.6,0,3.6,3.5c0,37.6,0,75.3,0,112.9
		c0,1.9,0,3.8,0.3,5.7c0.4,2.4,1.5,4.3,4.1,5.1c5.4,1.7,5.3,1.7,5.4,7.3c0,1.9-0.5,2.6-2.5,2.5c-4.5-0.1-9,0-13.5,0
		c-9.7,0-19.4,0-29.1,0c-0.9,0-1.9,0-3.2,0c0.1-2.2,0.2-4.2,0.4-6.1c0.1-1.8,1.3-2.7,2.9-3.1c5.6-1.7,6.7-3.1,6.7-9
		c0-22.8,0-45.6,0-68.4c0-10.6,0.1-21.2,0-31.7c0-7.4-1.9-8-6.6-9.1c-2.3-0.5-3.1-2.1-3.2-4.1C890.5,49,890.6,47.4,890.6,45.3z"/>
	<path fill="#4A4A49" d="M1054,45.3c3.2,0,6.2,0,9.1,0c8.8,0,17.7,0.1,26.5-0.1c2.4,0,2.9,0.7,2.9,3c-0.1,38.1,0,76.3,0,114.4
		c0,1.6,0.1,3.3,0.3,4.9c0.2,2.2,1.4,3.8,3.5,4.7c6.4,2.6,6.4,2.6,5.6,9.8c-15.8,0-31.7,0-47.9,0c0-1.9-0.1-3.7,0-5.5
		c0.2-1.9,1.2-3.3,3.2-3.6c5.2-0.9,6.5-3.3,6.5-8.5c0-33.6,0-67.3,0-100.9c0-6-1.2-7.8-6.5-8.8c-2.2-0.4-3.2-1.9-3.2-4.1
		C1053.9,49,1054,47.4,1054,45.3z"/>
</g>
</svg>
