<?xml version="1.0" encoding="utf-8"?>
<!-- Generator: Adobe Illustrator 24.0.0, SVG Export Plug-In . SVG Version: 6.00 Build 0)  -->
<svg version="1.1" id="Layer_1" xmlns="http://www.w3.org/2000/svg" xmlns:xlink="http://www.w3.org/1999/xlink" x="0px" y="0px"
	 viewBox="0 0 1272.6 233.2" style="enable-background:new 0 0 1272.6 233.2;" xml:space="preserve">
<style type="text/css">
	.st0{fill:#4A4A49;}
</style>
<path class="st0" d="M189.7,82c-0.1-2.6-0.3-4.5-0.3-6.5c0-13.2,0.1-26.3,0-39.5c-0.1-11.3-3.5-15.6-14.3-18.4
	c-9.9-2.5-19.8-2.5-29.7-0.5c-12.7,2.6-16,6.9-16,19.9c0,38,0.2,76-0.2,114c-0.1,7.9-1.1,16.1-3.4,23.6c-5.2,16.8-20.7,25-39.3,21.8
	c-17-2.9-25.4-13.4-25.4-32.1c0-25.2,0-50.3,0-75.5c0-5.5-1.3-6.9-6.7-6.9c-16-0.1-32,0-48,0C2,81.9,0,83.8,0,88.3
	c0.2,26-0.6,52,0.7,78c1.2,25.5,13.3,45.2,37,56.2c25.9,12,53.1,12.8,80.5,6.2c14.3-3.4,27.1-10.1,38.5-19.4
	c26,19.7,55.6,25,87,22.4c32.5-2.6,58.7-16.9,77.5-44.9c1.3,1.9,2.4,3.3,3.4,4.8c6.1,9.1,11.8,18.6,18.4,27.3
	c3.2,4.2,7.5,8.4,12.2,10.5c19.5,8.8,42.2,1.8,53.1-16.4c10.5-17.6,20.8-35.3,29.7-53.7c9.6-20.1,17.6-40.9,26-61.5
	c2.6-6.3,1.4-7.8-4.9-9.8c-7.4-2.3-14.9-4.7-22.4-7c-6.8-2.1-8.1-1.1-10.6,5.7c-8.4,22.6-16.8,45.2-25.7,67.6
	c-3.8,9.5-8.8,18.4-13.8,28.6c-1.6-2.7-2.6-4.2-3.5-5.7c-4.4-7.9-8.5-15.8-13.1-23.6c-12.8-21.9-25.6-43.6-38.5-65.4
	c-3.7-6.3-9.4-9.1-16.8-8.5c-13.8,1-25.2,7.1-34.5,17c-5.4,5.7-6.4,12.7-2.8,19.9c1.8,3.7,4.2,7.2,6.1,10.9
	c13.3,24.7,6.1,55.8-24.7,65.5c-7.8,2.5-16.3,3.7-24.5,3.6c-25.2-0.5-39.6-12.9-44-36.5c-0.6-3.1-0.8-6.3-0.8-9.4
	c-0.1-10.9,0-21.9,0-33.5c15.7,4.6,31,2.4,46.3,2.8c5.9,0.2,6.5-0.5,6.6-6.6c0.1-8,0.1-16,0-24c-0.1-6.2-1-7.1-7.4-7.1
	c-9,0-18,0-27,0C202,82,196.1,82,189.7,82z M850.1,34.9c1.6,8.7,2.7,16.8,4.6,24.6c13.2,53.6,26.5,107.1,39.8,160.6
	c1.6,6.2,5.4,11,11.9,11.1c14.4,0.4,28.9,0.3,43.3-0.3c6.5-0.3,10.2-5.1,11.2-11.6c4.4-27.6,8.7-55.2,13.1-82.8
	c3.2-20,6.4-40.1,9.7-60.1c0.2-1.3,1.3-2.4,1.9-3.6c0.9,1.2,2.3,2.3,2.6,3.6c2.2,11.8,4.2,23.6,6.3,35.3
	c6.3,35.5,12.6,71,18.9,106.5c1.5,8.2,4.7,12.4,12.9,12.8c13.7,0.8,27.5,0.5,41.3,0c6.7-0.2,10.6-4.7,12.3-11.2
	c13.4-53.7,29.1-106.8,38.6-161.4c1.3-7.8,2.8-15.5,4.2-23.4c-14.4,0-28,0-41.7,0c-0.2,0.9-0.4,1.5-0.5,2.1
	c-2.9,17-5.2,34.2-8.7,51.1c-7.1,34.5-14.7,68.9-22.3,103.3c-0.4,1.8-1.9,3.3-2.9,5c-1.1-1.6-2.7-3.1-3.1-4.8
	c-3.9-22.3-7.6-44.6-11.4-66.8c-4.6-27-9.2-54.1-13.9-81.1c-1.2-6.9-3.1-8.8-9.9-8.9c-14.8-0.3-29.7-0.3-44.5,0
	c-6.9,0.1-9.1,2.4-10.1,9.3c-3.1,20.9-6.1,41.8-9.2,62.7c-4.2,28.3-8.3,56.6-12.7,84.9c-0.3,1.7-1.9,3.2-2.9,4.7
	c-1-1.5-2.4-2.9-2.8-4.5c-11.1-51.3-22-102.7-33.1-154c-0.3-1.2-2.2-3-3.3-3C876.8,34.9,864,34.9,850.1,34.9z M634.4,180.2
	c-0.5,0.1-0.9,0.2-1.4,0.3c-2.7-4.7-5.4-9.5-8-14.2c-23.7-42.4-47.4-84.9-71-127.4c-1.6-3-3.5-4.3-7-4.2c-9.5,0.3-19,0.1-28.5,0.1
	c-4.6,0-9.2,0-14.1,0c-0.2,2.1-0.3,3.6-0.3,5.1c0,60.8,0,121.6,0,182.4c0,6.9,2,9.3,9,9.8c6.1,0.5,12.3,0.4,18.5,0.1
	c8.6-0.3,10.4-2.4,10.4-11c0-41.3,0-82.6,0-123.9c0-1.7,0.2-3.3,0.2-5c1.9,1.5,2.9,3.1,3.8,4.6c22.7,40.5,45.4,81,68,121.6
	c4.3,7.7,10.5,12.1,19.1,12.6c8.6,0.5,17.3,0.5,25.9,0c10.5-0.6,13.3-4,13.3-14.5c0-58.6,0-117.3,0-175.9c0-1.8,0-3.6,0-5.7
	c-12.9,0-25.1,0-37.8,0C634.4,83.8,634.4,132,634.4,180.2z M834.9,68.5c0-11.4,0-22.2,0-33.1c-0.9-0.2-1.5-0.4-2.1-0.4
	c-40.3,0-80.7-0.1-121,0.1c-9.5,0-11.1,2.1-11.1,11.8c0,58.3,0,116.7,0,175c0,9.4,1.5,10.9,11.1,10.9c39.7,0,79.3,0,119,0
	c1.2,0,2.5,0.3,3.5-0.1c1.1-0.5,2.7-1.7,2.7-2.6c0.2-9.9,0.1-19.9,0.1-30.4c-2.5,0-4.5,0-6.4,0c-27.7,0-55.3-0.1-83,0.1
	c-4.2,0-5.8-0.9-5.7-5.5c0.3-13.3,0.3-26.7,0-40c-0.1-4.6,1.3-5.9,5.9-5.9c22.7,0.2,45.3,0.1,68,0.1c1.9,0,3.9-0.2,5.8-0.3
	c0-11.1,0-21.7,0-32.7c-2.4,0-4.3,0-6.3,0c-22.7,0-45.3-0.1-68,0.1c-4.2,0-5.4-1.3-5.3-5.4c0.2-12.2,0.2-24.3,0-36.5
	c-0.1-4.2,1.2-5.4,5.4-5.4c26.2,0.2,52.3,0.1,78.5,0.1C828.6,68.5,831.4,68.5,834.9,68.5z M1261.4,38.6c-12.3-1.9-23.7-4.3-35.2-5.4
	c-18.3-1.6-36.6-1.5-54.3,4.6c-20.8,7.2-33.4,21.9-36,43.7c-2.4,20.3,2.5,38.8,20.5,50.9c7,4.8,15.4,7.8,23.5,10.8
	c13.2,4.9,26.9,8.7,39.9,14c9.2,3.8,12.5,11.2,11.6,21.1c-0.9,9.5-5.9,15.7-15.6,18.5c-13.4,3.9-27.1,3.2-40.6,1.3
	c-9.8-1.4-19.5-3.8-29.3-5.9c-6.4-1.4-8.6-0.6-10.3,5.8c-1.5,5.7-2.2,11.7-3.1,17.6c-0.9,5.3,1.8,7.9,6.7,9.3
	c28.5,7.9,57.3,10.2,86.4,5.3c17.4-2.9,32.2-10.5,40.6-27.3c4.4-8.8,6.2-18.3,6.4-28c0.3-22.4-6.8-42.2-31.6-52.8
	c-8.2-3.5-17-5.7-25.5-8.5c-9.1-3-18.6-5.3-27.3-9.3c-12-5.4-15.4-20.2-6.7-29.1c3.7-3.8,9.4-6.4,14.6-7.8
	c13.1-3.6,26.4-1.6,39.6,0.3c7.3,1.1,14.5,2.6,22,4C1258.9,60.9,1260.1,50.4,1261.4,38.6z M30.3,60.6c18.2,0.1,30.6-11.5,30.8-28.8
	C61.2,12.9,49,0.1,30.8,0C12.9-0.1-0.1,12.5-0.3,30.2C-0.6,47.9,12.1,60.5,30.3,60.6z"/>
<path class="st0" d="M189.7,82c6.3,0,12.3,0,18.3,0c9,0,18,0,27,0c6.4,0,7.4,0.9,7.4,7.1c0.1,8,0.1,16,0,24
	c-0.1,6.1-0.6,6.8-6.6,6.6c-15.2-0.4-30.6,1.8-46.3-2.8c0,11.7-0.1,22.6,0,33.5c0,3.2,0.2,6.4,0.8,9.4c4.4,23.6,18.8,35.9,44,36.5
	c8.2,0.2,16.7-1.1,24.5-3.6c30.7-9.7,38-40.9,24.7-65.5c-2-3.7-4.3-7.1-6.1-10.9c-3.6-7.2-2.6-14.1,2.8-19.9
	c9.3-9.9,20.7-16,34.5-17c7.4-0.6,13.1,2.2,16.8,8.5c12.9,21.8,25.8,43.6,38.5,65.4c4.5,7.8,8.7,15.7,13.1,23.6
	c0.9,1.6,1.8,3,3.5,5.7c5-10.2,10-19.1,13.8-28.6c8.9-22.4,17.3-45,25.7-67.6c2.5-6.7,3.7-7.7,10.6-5.7c7.5,2.2,14.9,4.6,22.4,7
	c6.4,2,7.5,3.5,4.9,9.8c-8.4,20.6-16.4,41.5-26,61.5c-8.9,18.4-19.2,36.1-29.7,53.7c-10.8,18.2-33.5,25.2-53.1,16.4
	c-4.7-2.1-9.1-6.3-12.2-10.5c-6.6-8.8-12.3-18.2-18.4-27.3c-1-1.5-2.1-2.9-3.4-4.8c-18.8,27.9-44.9,42.2-77.5,44.9
	c-31.4,2.6-61-2.8-87-22.4c-11.4,9.4-24.2,16-38.5,19.4c-27.5,6.6-54.6,5.8-80.5-6.2c-23.7-11-35.8-30.7-37-56.2
	c-1.2-25.9-0.5-52-0.7-78c0-4.5,2-6.3,6.3-6.3c16,0.1,32,0,48,0c5.4,0,6.7,1.4,6.7,6.9c0,25.2,0,50.3,0,75.5
	c0,18.6,8.4,29.2,25.4,32.1c18.6,3.2,34.1-5,39.3-21.8c2.3-7.5,3.3-15.7,3.4-23.6c0.3-38,0.2-76,0.2-114c0-12.9,3.3-17.3,16-19.9
	c9.9-2,19.9-2,29.7,0.5c10.8,2.7,14.3,7.1,14.3,18.4c0.1,13.2,0,26.3,0,39.5C189.4,77.5,189.6,79.4,189.7,82z"/>
<path class="st0" d="M850.1,34.9c13.8,0,26.7-0.1,39.5,0.1c1.2,0,3.1,1.8,3.3,3c11.1,51.3,22,102.7,33.1,154c0.4,1.6,1.8,3,2.8,4.5
	c1-1.6,2.7-3.1,2.9-4.7c4.3-28.3,8.5-56.6,12.7-84.9c3.1-20.9,6.1-41.8,9.2-62.7c1-6.9,3.2-9.2,10.1-9.3c14.8-0.3,29.7-0.3,44.5,0
	c6.8,0.1,8.7,2,9.9,8.9c4.7,27,9.3,54,13.9,81.1c3.8,22.3,7.5,44.6,11.4,66.8c0.3,1.7,2,3.2,3.1,4.8c1-1.6,2.6-3.2,2.9-5
	c7.5-34.4,15.2-68.8,22.3-103.3c3.5-16.9,5.8-34.1,8.7-51.1c0.1-0.6,0.3-1.2,0.5-2.1c13.7,0,27.3,0,41.7,0
	c-1.4,7.9-2.9,15.7-4.2,23.4c-9.5,54.6-25.2,107.7-38.6,161.4c-1.6,6.6-5.6,11-12.3,11.2c-13.8,0.5-27.6,0.8-41.3,0
	c-8.2-0.5-11.5-4.6-12.9-12.8c-6.4-35.5-12.6-71-18.9-106.5c-2.1-11.8-4.1-23.6-6.3-35.3c-0.2-1.3-1.7-2.4-2.6-3.6
	c-0.7,1.2-1.7,2.3-1.9,3.6c-3.3,20-6.5,40-9.7,60.1c-4.4,27.6-8.7,55.2-13.1,82.8c-1,6.5-4.7,11.3-11.2,11.6
	c-14.4,0.7-28.9,0.7-43.3,0.3c-6.5-0.2-10.3-4.9-11.9-11.1c-13.3-53.5-26.7-107-39.8-160.6C852.8,51.7,851.7,43.6,850.1,34.9z"/>
<path class="st0" d="M634.4,180.2c0-48.2,0-96.5,0-145c12.7,0,24.9,0,37.8,0c0,2.1,0,3.9,0,5.7c0,58.6,0,117.3,0,175.9
	c0,10.5-2.8,13.9-13.3,14.5c-8.6,0.5-17.3,0.5-25.9,0c-8.5-0.5-14.8-4.9-19.1-12.6c-22.5-40.6-45.3-81.1-68-121.6
	c-0.9-1.6-1.9-3.1-3.8-4.6c-0.1,1.7-0.2,3.3-0.2,5c0,41.3,0,82.6,0,123.9c0,8.6-1.8,10.6-10.4,11c-6.1,0.2-12.3,0.3-18.5-0.1
	c-7-0.5-9-2.9-9-9.8c0-60.8,0-121.6,0-182.4c0-1.5,0.2-2.9,0.3-5.1c4.9,0,9.5,0,14.1,0c9.5,0,19,0.2,28.5-0.1c3.5-0.1,5.4,1.2,7,4.2
	c23.6,42.5,47.3,84.9,71,127.4c2.7,4.8,5.3,9.5,8,14.2C633.5,180.5,633.9,180.4,634.4,180.2z"/>
<path class="st0" d="M834.9,68.5c-3.4,0-6.3,0-9.1,0c-26.2,0-52.3,0.1-78.5-0.1c-4.1,0-5.4,1.2-5.4,5.4c0.2,12.2,0.2,24.3,0,36.5
	c-0.1,4.1,1.2,5.4,5.3,5.4c22.7-0.2,45.3-0.1,68-0.1c2,0,4,0,6.3,0c0,11,0,21.6,0,32.7c-1.9,0.1-3.8,0.3-5.8,0.3
	c-22.7,0-45.3,0.1-68-0.1c-4.6,0-6,1.3-5.9,5.9c0.3,13.3,0.3,26.7,0,40c-0.1,4.6,1.5,5.5,5.7,5.5c27.7-0.2,55.3-0.1,83-0.1
	c2,0,3.9,0,6.4,0c0,10.5,0.1,20.4-0.1,30.4c0,0.9-1.6,2.1-2.7,2.6c-1,0.4-2.3,0.1-3.5,0.1c-39.7,0-79.3,0-119,0
	c-9.6,0-11.1-1.5-11.1-10.9c0-58.3,0-116.7,0-175c0-9.7,1.6-11.8,11.1-11.8c40.3-0.2,80.7-0.1,121-0.1c0.6,0,1.3,0.3,2.1,0.4
	C834.9,46.3,834.9,57,834.9,68.5z"/>
<path class="st0" d="M1261.4,38.6c-1.3,11.8-2.4,22.3-3.7,33.4c-7.5-1.4-14.7-2.9-22-4c-13.2-2-26.5-3.9-39.6-0.3
	c-5.2,1.4-10.9,4-14.6,7.8c-8.7,8.9-5.3,23.6,6.7,29.1c8.7,3.9,18.2,6.3,27.3,9.3c8.5,2.8,17.3,5,25.5,8.5
	c24.8,10.6,31.9,30.4,31.6,52.8c-0.1,9.7-2,19.1-6.4,28c-8.4,16.8-23.2,24.3-40.6,27.3c-29.2,4.9-58,2.6-86.4-5.3
	c-4.9-1.4-7.6-4-6.7-9.3c0.9-5.9,1.6-11.9,3.1-17.6c1.7-6.4,3.9-7.2,10.3-5.8c9.7,2.1,19.4,4.5,29.3,5.9c13.5,1.9,27.2,2.5,40.6-1.3
	c9.7-2.8,14.7-9,15.6-18.5c0.9-9.9-2.4-17.3-11.6-21.1c-13-5.3-26.7-9.1-39.9-14c-8.1-3-16.4-6-23.5-10.8
	c-18-12.1-22.9-30.6-20.5-50.9c2.6-21.8,15.2-36.4,36-43.7c17.7-6.1,36-6.3,54.3-4.6C1237.7,34.3,1249.1,36.7,1261.4,38.6z"/>
<path class="st0" d="M30.3,60.6C12.1,60.5-0.6,47.9-0.3,30.2C-0.1,12.5,12.9-0.1,30.8,0C49,0.1,61.2,12.9,61.1,31.8
	C60.9,49.1,48.5,60.7,30.3,60.6z"/>
</svg>
