<svg xmlns="http://www.w3.org/2000/svg" xmlns:xlink="http://www.w3.org/1999/xlink" id="Layer_1" x="0" y="0" baseProfile="tiny" version="1.2" viewBox="0 0 913.2 220.6" xml:space="preserve"><title>shifter</title><g><g id="Layer_1-2"><path fill="#4A4A49" d="M60.8,47.6c4.1-3.3,9.1-5,14.3-5c5.1,0,10.2,1.2,14.8,3.4c4.8,2.3,9,5.6,12.4,9.6l24.5-34.7 C120.4,14.2,112.6,9,104,5.6C95,1.9,84.7,0,73.3,0c-7.8,0-15.5,1.3-22.9,3.8c-7.6,2.6-14.6,6.6-20.7,11.8 c-6.5,5.7-11.6,12.7-15.1,20.5c-3.8,8.4-5.8,18.4-5.8,30c0,8.7,1.1,16.2,3.2,22.5c2,6,5,11.6,9,16.6c3.8,4.7,8.3,8.8,13.3,12.1 c5.2,3.4,10.5,6.5,16.1,9.2c9.1,4.5,16,8.8,20.7,12.9c4.7,4,7.1,9.5,7.1,16.4c0,6.7-2,11.9-5.9,15.7c-3.9,3.7-9.1,5.7-14.5,5.6 c-6.2,0-12.4-1.5-18-4.3c-5.9-2.8-11.2-6.7-15.7-11.4L0,196.9c6.3,6.3,14.6,11.8,25,16.6c10.8,4.8,22.6,7.3,34.4,7.1 c8.4,0,16.7-1.4,24.6-4.3c7.8-2.8,14.9-7.1,21-12.7c6.3-6,11.2-13.3,14.4-21.3c3.6-8.6,5.4-18.5,5.4-29.8c0-9.1-1.4-16.9-4.3-23.6 c-2.6-6.2-6.3-12-10.9-17c-4.2-4.6-9.1-8.7-14.4-12s-10.3-6.1-15-8.4c-8.5-4.3-14.9-8.3-19.2-12s-6.5-8.7-6.5-15.3 C54.4,56.5,56.5,51,60.8,47.6z"/><polygon fill="#4A4A49" points="240.6 84.9 191.9 84.9 191.9 5.6 144.9 5.6 144.9 214.9 191.9 214.9 191.9 127.4 240.6 127.4 240.6 214.9 287.7 214.9 287.7 5.6 240.6 5.6"/><rect width="47.6" height="209.3" x="316.6" y="5.6" fill="#4A4A49"/><polygon fill="#4A4A49" points="388.5 48.2 442.9 48.2 442.9 91.1 392.9 91.1 392.9 131.6 442.6 131.6 442.6 214.9 490.5 214.9 490.5 5.6 388.5 5.6"/><polygon fill="#4A4A49" points="510.3 45.8 548.7 45.8 548.7 214.9 595.1 214.9 595.1 45.8 633.6 45.8 633.6 5.6 510.3 5.6"/><polygon fill="#4A4A49" points="697.1 127.4 748.6 127.4 748.6 88.4 697.1 88.4 697.1 47.3 753 47.3 753 5.6 651.9 5.6 651.9 214.9 756.5 214.9 756.5 172.4 697.1 172.4"/><path fill="#4A4A49" d="M877.6,121.5c3.7-1.4,7.2-3.4,10.3-5.9c3.8-3,7-6.6,9.6-10.6c3.1-4.8,5.4-10.1,6.9-15.7 c1.8-6.8,2.7-13.7,2.6-20.7c0-20.9-5.6-36.6-16.8-47.2S863.3,5.6,843,5.6h-67v209.3h45.5v-83.4h13.8l28,83.4h49.8L877.6,121.5z M853.1,91.8c-4.9,4.2-11.1,6.5-17.6,6.4h-13.9v-53h14.8c2.8,0,5.7,0.3,8.4,1c2.9,0.7,5.6,2.1,7.8,4c2.5,2.2,4.5,4.9,5.8,8 c1.5,3.3,2.2,7.7,2.2,13C860.6,80.7,858.1,87.6,853.1,91.8z"/></g></g></svg>