<svg xmlns="http://www.w3.org/2000/svg" xmlns:xlink="http://www.w3.org/1999/xlink" id="Layer_1" x="0" y="0" baseProfile="tiny" version="1.2" viewBox="0 0 486 347.8" xml:space="preserve"><g><rect width="10.7" height="74.8" x="241.7" y="273" fill="#4A4A49"/><path fill="#4A4A49" d="M0,0v287h170.9l23.3,60.8h7.5l29.4-74.8H220l-22,56.4l-20.1-53.2h-11.1h0h-156V10.7h233.5h231.1v265.6 H307.1c-3.9-2.3-9.1-4.4-15.7-4.4c-13,0-22.7,9-22.7,19.9c0,7.8,4.2,12.9,9.5,16.5c9.9,6.5,25.8,7.8,25.8,19.2 c0,6.7-6.1,11.2-13,11.2c-7.7,0-13.9-4.3-18.3-9.6l-7.4,7.3c6.6,8,15.9,12.5,26.2,12.5c13,0,23.2-8.6,23.2-21.7 c0-8.6-4.7-13.8-9.7-17.1c-9.6-6.4-25.5-8.4-25.5-18c0-6.5,6.2-10,12.4-10c4.1,0,8,1,11.6,3.6c0.5,0.4,1.9,1.4,1.9,1.4H486V0H244.2 H0z"/></g></svg>